<svg width="40" height="40" viewBox="0 0 40 40" fill="none" xmlns="http://www.w3.org/2000/svg">
<path d="M26.6667 23.3333C25.2778 23.3333 24.0972 22.8472 23.125 21.875C22.1528 20.9028 21.6667 19.7222 21.6667 18.3333C21.6667 16.9444 22.1528 15.7639 23.125 14.7917C24.0972 13.8194 25.2778 13.3333 26.6667 13.3333C28.0556 13.3333 29.2361 13.8194 30.2083 14.7917C31.1806 15.7639 31.6667 16.9444 31.6667 18.3333C31.6667 19.7222 31.1806 20.9028 30.2083 21.875C29.2361 22.8472 28.0556 23.3333 26.6667 23.3333ZM18.3333 33.3333C17.8611 33.3333 17.4653 33.1736 17.1458 32.8542C16.8264 32.5347 16.6667 32.1389 16.6667 31.6667V30.1667C16.6667 29.5833 16.8056 29.0278 17.0833 28.5C17.3611 27.9722 17.75 27.5556 18.25 27.25C19.5 26.5 20.8264 25.9375 22.2292 25.5625C23.6319 25.1875 25.1111 25 26.6667 25C28.2222 25 29.7014 25.1875 31.1042 25.5625C32.5069 25.9375 33.8333 26.5 35.0833 27.25C35.5833 27.5556 35.9722 27.9722 36.25 28.5C36.5278 29.0278 36.6667 29.5833 36.6667 30.1667V31.6667C36.6667 32.1389 36.5069 32.5347 36.1875 32.8542C35.8681 33.1736 35.4722 33.3333 35 33.3333H18.3333ZM20.25 30H33.0833C32.1111 29.4444 31.0833 29.0278 30 28.75C28.9167 28.4722 27.8056 28.3333 26.6667 28.3333C25.5278 28.3333 24.4167 28.4722 23.3333 28.75C22.25 29.0278 21.2222 29.4444 20.25 30ZM26.6667 20C27.1389 20 27.5347 19.8403 27.8542 19.5208C28.1736 19.2014 28.3333 18.8056 28.3333 18.3333C28.3333 17.8611 28.1736 17.4653 27.8542 17.1458C27.5347 16.8264 27.1389 16.6667 26.6667 16.6667C26.1944 16.6667 25.7986 16.8264 25.4792 17.1458C25.1597 17.4653 25 17.8611 25 18.3333C25 18.8056 25.1597 19.2014 25.4792 19.5208C25.7986 19.8403 26.1944 20 26.6667 20ZM16.6667 23.3333H6.66667C6.19444 23.3333 5.79861 23.1736 5.47917 22.8542C5.15972 22.5347 5 22.1389 5 21.6667C5 21.1944 5.15972 20.7986 5.47917 20.4792C5.79861 20.1597 6.19444 20 6.66667 20H16.6667C17.1389 20 17.5347 20.1597 17.8542 20.4792C18.1736 20.7986 18.3333 21.1944 18.3333 21.6667C18.3333 22.1389 18.1736 22.5347 17.8542 22.8542C17.5347 23.1736 17.1389 23.3333 16.6667 23.3333ZM23.3333 10H6.66667C6.19444 10 5.79861 9.84028 5.47917 9.52084C5.15972 9.20139 5 8.80556 5 8.33334C5 7.86112 5.15972 7.46528 5.47917 7.14584C5.79861 6.82639 6.19444 6.66667 6.66667 6.66667H23.3333C23.8056 6.66667 24.2014 6.82639 24.5208 7.14584C24.8403 7.46528 25 7.86112 25 8.33334C25 8.80556 24.8403 9.20139 24.5208 9.52084C24.2014 9.84028 23.8056 10 23.3333 10ZM18.5 16.6667H6.66667C6.19444 16.6667 5.79861 16.5069 5.47917 16.1875C5.15972 15.8681 5 15.4722 5 15C5 14.5278 5.15972 14.1319 5.47917 13.8125C5.79861 13.4931 6.19444 13.3333 6.66667 13.3333H20C19.6111 13.8056 19.2986 14.3194 19.0625 14.875C18.8264 15.4306 18.6389 16.0278 18.5 16.6667Z" fill="#080D58"/>
</svg>
